Simulation
nRows=27
nColumns=15
endheader
time  TH_x TH_y TH_z SC_y  SC_z  SC_x  AC_y  AC_z  AC_x  GH_y  GH_z  GH_yy  EL_x  PS_y
0.0  0.000000  0.000000  0.000000  -22.55194619186051  5.257299290277745  -6.965678382175298  57.345342361141554  8.528310058604628  8.783799627488978  -150.35733835757927  4.026322539603132  -172.76133465290212  20.216220309544816  120.000000
0.04016479400749064  0.000000  0.000000  0.000000  -22.56267110629813  5.269997944688218  -6.952354058950155  57.312607722627355  8.573630573803394  8.765919477440109  -149.16643396304792  3.8972869595014563  -174.05428694452903  20.129980967819364  120.000000
0.08032958801498127  0.000000  0.000000  0.000000  -22.596763243060114  5.310276045575563  -6.913993454234355  57.20702993851106  8.70698875722842  8.708210424719649  -144.94181503555782  3.5264608800860393  -178.59020983353113  19.879623073240804  120.000000
0.12049438202247191  0.000000  0.000000  0.000000  -22.663915133289944  5.381164164829323  -6.859624601918884  57.01556454006638  8.914924415681252  8.608901214719637  -135.52226917198695  2.985197558486931  171.46101433070748  19.489581388551834  120.000000
0.16065917602996255  0.000000  0.000000  0.000000  -22.77842720061886  5.48094821086412  -6.8044075190651006  56.731871532343  9.176030115772706  8.471684100228053  -116.50491413343055  2.4648715716533096  151.693428375052  18.990836248243642  120.000000
0.20082397003745317  0.000000  0.000000  0.000000  -22.95665764705759  5.605735774042705  -6.762204944681827  56.35721251015005  9.470933990642319  8.30344984010508  -85.7228003365903  2.379988423523141  119.94470078369044  18.413288744078038  120.000000
0.24098876404494382  0.000000  0.000000  0.000000  -23.21444341383361  5.750056093455173  -6.740133568202901  55.8998651927896  9.783196325121885  8.114122447756298  -57.106399902386336  3.0884192503181396  90.15823207721141  17.783995466186482  120.000000
0.28115355805243447  0.000000  0.000000  0.000000  -23.56473959707413  5.909865531384317  -6.735109698856679  55.37618666919649  10.100644928401348  7.9112287225793265  -40.25339491124081  4.42471719711046  71.95088908996914  17.126111413063207  120.000000
0.3213183520599251  0.000000  0.000000  0.000000  -24.015626853425932  6.086574014319024  -6.736796541997138  54.80487316168988  10.417493610076141  7.701690216028229  -31.0415150770739  6.136646399018986  61.22353731240251  16.459103341407257  120.000000
0.3614831460674157  0.000000  0.000000  0.000000  -24.56664683149245  6.2812919209013796  -6.731710018010139  54.20347625279721  10.733663299315989  7.490920689586573  -25.6528195426347  8.102237876919208  54.18460258143244  15.796988905286273  120.000000
0.40164794007490634  0.000000  0.000000  0.000000  -25.21232164255333  6.495158010713886  -6.70475135144778  53.589585610355876  11.050717908496233  7.2815327544190405  -22.268880599868023  10.263748189750514  49.04351458830163  15.150324342792752  120.000000
0.441812734082397  0.000000  0.000000  0.000000  -25.942883074420894  6.730214393024056  -6.638855984543825  52.97936670836676  11.368282882395965  7.074225735415906  -20.039398835802235  12.586876934272249  44.97901243108305  14.527259576075249  120.000000
0.48197752808988764  0.000000  0.000000  0.000000  -26.74596074000721  6.986621175240467  -6.51550292270146  52.38695175077061  11.682707964397107  6.867922109444351  -18.533617035137347  15.045338735272228  41.58922661117401  13.93337946944456  120.000000
0.5221423220973783  0.000000  0.000000  0.000000  -27.607254338328072  7.262683560385206  -6.318127795010016  51.82508251784733  11.987829557242765  6.66151211874474  -17.509419669421725  17.614161392661206  38.66022175020824  13.372393973102893  120.000000
0.5623071161048689  0.000000  0.000000  0.000000  -28.51126170443636  7.555387350442737  -6.033747809321008  51.30587789993449  12.275961217006653  6.4541701965848235  -16.81461291798981  20.267559480644344  36.06646284208812  12.846454968064428  120.000000
0.6024719101123596  0.000000  0.000000  0.000000  -29.44276933553361  7.860744388603664  -5.653952684458819  50.84034933035088  12.53913782316455  6.245954148046063  -16.343790465693438  22.979025344512696  33.72655225782275  12.356051126648461  120.000000
0.6426367041198502  0.000000  0.000000  0.000000  -30.387656015045795  8.174566286714837  -5.177767645415073  50.43761601998469  12.772243833520346  6.039593295973953  -16.018584494938228  25.72228708834573  31.58254010084974  11.899813607543264  120.000000
0.6828014981273408  0.000000  0.000000  0.000000  -31.333688598604024  8.493214388327177  -4.610249817135259  50.10456975647383  12.973172479441986  5.839895896453659  -15.777662279572969  28.47281046534182  29.588932950477417  11.474378558165142  120.000000
0.7229662921348314  0.000000  0.000000  0.000000  -32.270884157255566  8.813882606011246  -3.9572963238089898  49.84575064806428  13.140265486457936  5.651034542188515  -15.57274554404449  31.208806099975234  27.708266294515596  11.074260745082276  120.000000
0.7631310861423221  0.000000  0.000000  0.000000  -33.19153004798129  9.134641122181812  -3.225558405773814  49.66272614645647  13.273413292078596  5.476729571916659  -15.367016929722883  33.91156269113108  25.909374325706704  10.692277024670904  120.000000
0.8032958801498127  0.000000  0.000000  0.000000  -34.08968618495699  9.454334756279929  -2.4243595102770357  49.55351751025488  13.375584096918706  5.321325211063967  -15.134753564524214  36.56535951234944  24.16767364423742  10.320275264795722  120.000000
0.8434606741573034  0.000000  0.000000  0.000000  -34.960588154782116  9.772029929953664  -1.564047795459458  49.51266804345658  13.451023810362452  5.188376305808246  -14.861042256882545  39.156918851741295  22.46578680357514  9.950475865251995  120.000000
0.883625468164794  0.000000  0.000000  0.000000  -35.79966177257167  10.086775172733454  -0.6557066773228751  49.53143512167601  13.504208874134054  5.079943994198766  -14.540893928919786  41.67463288098547  20.79414010730464  9.576992508975485  120.000000
0.9237902621722847  0.000000  0.000000  0.000000  -36.60185441882894  10.397320874109678  0.28842539536255535  49.59815264416395  13.539175465602675  4.996360152785157  -14.177982886665673  44.107565286390034  19.151103598220416  9.19726812813515  120.000000
0.9639550561797753  0.000000  0.000000  0.000000  -37.361426772150516  10.70168572056807  1.254791158484093  49.69861458075054  13.558644601695047  4.93611211141245  -13.78307009470792  46.44472854884331  17.542857488383127  8.813155144329722  120.000000
1.004119850187266  0.000000  0.000000  0.000000  -38.07217875922388  10.99799985337631  2.2284914568318865  49.81779514716411  13.563791854717898  4.895690774390576  -13.371076888311345  48.674817385193585  15.981624596810663  8.43091962502402  120.000000
1.0442846441947566  0.000000  0.000000  0.000000  -38.72820324689464  11.284663859737666  3.193857570818001  49.94152669612719  13.554636681160122  4.869961681198298  -12.957754303835722  50.78703742598107  14.483335262437018  8.060671702684878  120.000000
